<svg width="23" height="23" xmlns="http://www.w3.org/2000/svg" xmlns:xlink="http://www.w3.org/1999/xlink" version="1.1" x="0px" y="0px" viewBox="0 0 100 125" enable-background="new 0 0 100 100" xml:space="preserve"><g><path d="M71.124,91.224c0,2.086-1.69,3.776-3.776,3.776h-14.01c-1.756,0-3.248-1.208-3.654-2.851   C49.268,93.792,47.786,95,46.021,95H32.652c-2.086,0-3.776-1.69-3.776-3.776c0-2.086,1.69-3.776,3.776-3.776h13.368   c0.066,0,0.132,0,0.198,0.009V12.543c-0.066,0.009-0.132,0.009-0.198,0.009H32.652c-2.086,0-3.776-1.69-3.776-3.776   C28.876,6.69,30.566,5,32.652,5h13.368c1.765,0,3.248,1.208,3.663,2.851C50.09,6.208,51.581,5,53.338,5h14.01   c2.086,0,3.776,1.69,3.776,3.776c0,2.086-1.69,3.776-3.776,3.776H53.772v74.895h13.576C69.434,87.447,71.124,89.137,71.124,91.224z   "/></g></svg>
